<?xml version="1.0" encoding="utf-8"?>
<!-- Generator: Adobe Illustrator 16.0.0, SVG Export Plug-In . SVG Version: 6.00 Build 0)  -->
<!DOCTYPE svg PUBLIC "-//W3C//DTD SVG 1.1//EN" "http://www.w3.org/Graphics/SVG/1.1/DTD/svg11.dtd">
<svg version="1.1" id="Layer_1" xmlns="http://www.w3.org/2000/svg" xmlns:xlink="http://www.w3.org/1999/xlink" x="0px" y="0px"
	 width="287.041px" height="36.917px" viewBox="16.125 6.583 287.041 36.917" enable-background="new 16.125 6.583 287.041 36.917"
	 xml:space="preserve">
<g>
	<g>
		<g>
			<path fill="#202020" d="M258.539,31.887c-1.586,0-2.876-1.289-2.876-2.875v-4.104l-2.032,2.696
				c-0.514,0.68-1.271,1.068-2.082,1.068c-0.822,0-1.587-0.398-2.099-1.094l-1.908-2.592v4.025c0,1.587-1.29,2.875-2.875,2.875
				h-2.333c-1.586,0-2.876-1.288-2.876-2.875V13.67c0-1.585,1.29-2.874,2.876-2.874h2.087c1.163,0,2.457,0.653,3.146,1.588
				l3.988,5.412l4.086-5.431c0.694-0.924,1.987-1.568,3.145-1.568h2.16c1.584,0,2.875,1.289,2.875,2.874v15.341
				c0,1.586-1.291,2.875-2.875,2.875H258.539z"/>
			<path fill="#878787" d="M260.945,11.296c1.31,0,2.375,1.064,2.375,2.374v15.341c0,1.312-1.065,2.375-2.375,2.375h-2.406
				c-1.309,0-2.376-1.063-2.376-2.375v-5.599l-2.933,3.889c-0.418,0.553-1.028,0.87-1.683,0.87c-0.662,0-1.278-0.323-1.696-0.891
				l-2.811-3.817v5.548c0,1.312-1.064,2.375-2.375,2.375h-2.333c-1.312,0-2.376-1.063-2.376-2.375V13.67
				c0-1.31,1.064-2.374,2.376-2.374h2.087c0.998,0,2.152,0.583,2.744,1.385l4.387,5.952l4.488-5.968
				c0.598-0.793,1.751-1.369,2.745-1.369H260.945 M260.945,10.296h-2.16c-1.303,0-2.76,0.727-3.544,1.767l-3.683,4.896l-3.59-4.871
				c-0.777-1.055-2.236-1.792-3.549-1.792h-2.087c-1.86,0-3.376,1.514-3.376,3.374v15.341c0,1.861,1.516,3.375,3.376,3.375h2.333
				c1.861,0,3.375-1.514,3.375-3.375v-2.503l1.005,1.365c0.606,0.825,1.521,1.298,2.502,1.298c0.968,0,1.871-0.462,2.479-1.269
				l1.135-1.504v2.611c0,1.861,1.515,3.375,3.376,3.375h2.405c1.861,0,3.375-1.514,3.375-3.375V13.67
				C264.32,11.81,262.807,10.296,260.945,10.296L260.945,10.296z"/>
		</g>
		<path fill="#FFFFFF" d="M252.348,26.281l-0.17,0.227c-0.35,0.462-0.919,0.459-1.263-0.008l-4.565-6.204
			c-0.346-0.468-0.627-0.375-0.627,0.205v8.51c0,0.58-0.476,1.056-1.056,1.056h-0.616V17.673c0-0.323-0.262-0.586-0.587-0.586
			s-0.586,0.263-0.586,0.586v12.394h-0.544c-0.58,0-1.057-0.475-1.057-1.055V13.67c0-0.561,0.445-1.019,0.998-1.049L252.348,26.281z
			 M260.945,12.615h-0.17l-7.479,10.146c-0.114,0.157-0.294,0.24-0.474,0.24c-0.121,0-0.242-0.038-0.346-0.115
			c-0.263-0.193-0.318-0.56-0.127-0.821l6.967-9.45h-0.532c-0.58,0-1.343,0.379-1.69,0.844l-4.919,6.54
			c-0.348,0.464-0.917,0.462-1.261-0.006l-4.812-6.528c-0.344-0.466-1.101-0.849-1.682-0.849h-0.691l9.354,12.689l3.765-4.99
			c0.351-0.463,0.637-0.369,0.637,0.212v8.485c0,0.58,0.476,1.055,1.056,1.055h0.618V17.429c0-0.325,0.263-0.586,0.586-0.586
			c0.324,0,0.586,0.262,0.586,0.586v12.637h0.615c0.582,0,1.056-0.476,1.056-1.056V13.67C262,13.091,261.525,12.615,260.945,12.615z
			"/>
	</g>
	<g>
		<path fill="#878787" d="M238.247,35.312h1.127l1.247,2.008l1.248-2.008h1.127v4.748h-1.037V36.96l-1.338,2.031h-0.025
			l-1.322-2.009v3.078h-1.025L238.247,35.312L238.247,35.312z"/>
		<path fill="#878787" d="M244.877,37.701v-0.016c0-1.349,1.064-2.455,2.531-2.455c1.466,0,2.517,1.093,2.517,2.442v0.013
			c0,1.351-1.065,2.457-2.53,2.457S244.877,39.051,244.877,37.701z M248.833,37.701v-0.016c0-0.812-0.599-1.492-1.438-1.492
			s-1.424,0.668-1.424,1.479v0.013c0,0.815,0.596,1.496,1.438,1.496C248.249,39.182,248.833,38.518,248.833,37.701z"/>
		<path fill="#878787" d="M253.129,35.279h0.962l2.037,4.781h-1.093l-0.436-1.064h-2.009l-0.433,1.064h-1.066L253.129,35.279z
			 M254.229,38.074l-0.631-1.539l-0.632,1.539H254.229z"/>
		<path fill="#878787" d="M257.811,35.312h2.205c0.545,0,0.971,0.147,1.242,0.422c0.217,0.216,0.327,0.481,0.327,0.807v0.014
			c0,0.535-0.285,0.834-0.625,1.025c0.549,0.211,0.888,0.527,0.888,1.164v0.016c0,0.869-0.705,1.303-1.775,1.303h-2.262V35.312z
			 M259.792,37.232c0.461,0,0.753-0.148,0.753-0.5v-0.017c0-0.312-0.245-0.487-0.686-0.487h-1.03v1.004H259.792z M260.07,39.146
			c0.461,0,0.74-0.164,0.74-0.518v-0.013c0-0.318-0.238-0.517-0.775-0.517h-1.206v1.045h1.241V39.146z"/>
		<path fill="#878787" d="M263.707,35.312h1.045v4.748h-1.045V35.312z"/>
	</g>
	<g>
		<rect x="275.377" y="11.074" fill="#A2A2A2" width="27.768" height="27.766"/>
		<g>
			<path fill="#FFFFFF" d="M281.531,17.067c-0.053-0.298-0.188-0.756-0.666-0.756c-0.788,0-0.788,1.007-0.788,1.563
				c0,0.898,0.063,1.176,0.213,1.409c0.122,0.194,0.388,0.297,0.606,0.297c0.054,0,0.389,0.013,0.711-0.258v-0.775h-0.696v-0.73
				h1.569v1.951c-0.387,0.285-0.809,0.569-1.635,0.569c-1.486,0-1.674-1.351-1.674-2.314c0-1.066,0.146-1.544,0.497-1.945
				c0.452-0.523,1.009-0.523,1.247-0.523c1.254,0,1.402,0.84,1.486,1.325L281.531,17.067z"/>
			<path fill="#FFFFFF" d="M283.948,15.632v3.896h1.764v0.731h-2.636v-4.627H283.948z"/>
			<path fill="#FFFFFF" d="M289.163,18.01c0,0.582-0.007,2.326-1.688,2.326c-1.246,0-1.68-0.944-1.68-2.449
				c0-1.189,0.344-2.333,1.673-2.333C288.955,15.554,289.163,16.912,289.163,18.01z M287.482,19.593
				c0.316,0,0.517-0.201,0.607-0.375c0.096-0.194,0.168-0.388,0.168-1.428c0-0.414,0-1.479-0.775-1.479
				c-0.258,0-0.523,0.135-0.666,0.548c-0.096,0.285-0.116,0.931-0.116,1.248C286.7,18.526,286.707,19.593,287.482,19.593z"/>
			<path fill="#FFFFFF" d="M291.023,15.632c1.014,0,1.305,0.595,1.305,1.144c0,0.407-0.146,0.828-0.723,1.028v0.013
				c0.69,0.129,0.91,0.607,0.91,1.156c0,0.555-0.271,1.286-1.396,1.286h-1.44v-4.627H291.023z M290.54,17.5h0.245
				c0.167,0,0.684,0,0.684-0.562c0-0.556-0.503-0.556-0.639-0.556h-0.29V17.5L290.54,17.5z M290.54,19.509h0.29
				c0.316,0,0.781-0.045,0.781-0.64c0-0.614-0.549-0.621-0.781-0.621h-0.29V19.509z"/>
			<path fill="#FFFFFF" d="M295.029,15.632l1.312,4.627h-0.91l-0.215-0.917h-1.338l-0.219,0.917h-0.912l1.325-4.627H295.029z
				 M295.036,18.585l-0.478-2.094h-0.014l-0.484,2.094H295.036z"/>
			<path fill="#FFFFFF" d="M297.529,15.632v3.896h1.766v0.731h-2.638v-4.627H297.529z"/>
			<path fill="#4E4E4E" d="M281.879,22.407v0.745h-1.648v1.174h1.318v0.746h-1.318v2.058h-0.892v-4.722L281.879,22.407
				L281.879,22.407z"/>
			<path fill="#4E4E4E" d="M285.705,24.834c0,0.593-0.007,2.374-1.723,2.374c-1.273,0-1.715-0.963-1.715-2.5
				c0-1.213,0.351-2.381,1.709-2.381C285.493,22.328,285.705,23.712,285.705,24.834z M283.989,26.449
				c0.323,0,0.528-0.204,0.62-0.383c0.099-0.197,0.17-0.396,0.17-1.458c0-0.422,0-1.511-0.79-1.511
				c-0.265,0-0.534,0.139-0.681,0.562c-0.099,0.29-0.117,0.949-0.117,1.272C283.191,25.361,283.198,26.449,283.989,26.449z"/>
			<path fill="#4E4E4E" d="M287.848,22.407c0.033,0,0.396,0.006,0.7,0.065c0.435,0.093,0.916,0.488,0.916,1.28
				c0,0.943-0.745,1.181-1.022,1.26v0.013c0.119,0.04,0.225,0.073,0.391,0.251c0.091,0.099,0.336,0.507,0.383,0.593l0.619,1.26
				h-1.009l-0.72-1.357c-0.323-0.607-0.455-0.607-0.805-0.607h-0.14v1.965h-0.892v-4.722H287.848z M287.161,24.444h0.448
				c0.515,0,0.943-0.105,0.943-0.653c0-0.614-0.587-0.614-0.863-0.614h-0.528V24.444z"/>
			<path fill="#4E4E4E" d="M292.576,22.407v0.745h-1.581v1.122h1.43v0.746h-1.43v1.364h1.661v0.746h-2.553v-4.722L292.576,22.407
				L292.576,22.407z"/>
			<path fill="#4E4E4E" d="M295.037,23.785c-0.033-0.218-0.1-0.719-0.566-0.719c-0.238,0-0.488,0.145-0.488,0.462
				c0,0.389,0.408,0.58,0.845,0.784c0.798,0.376,1.233,0.759,1.233,1.478c0,0.731-0.481,1.418-1.537,1.418
				c-1.438,0-1.519-1.114-1.551-1.603l0.91-0.086c0.033,0.422,0.118,0.916,0.68,0.916c0.449,0,0.613-0.321,0.613-0.58
				c0-0.441-0.408-0.632-0.982-0.89c-0.514-0.231-1.096-0.554-1.096-1.359c0-0.66,0.457-1.279,1.451-1.279
				c1.241,0,1.354,0.923,1.379,1.405L295.037,23.785z"/>
			<path fill="#4E4E4E" d="M299.338,22.407v0.745h-1.089v3.978h-0.892v-3.978h-1.088v-0.745H299.338z"/>
			<path fill="#FFFFFF" d="M280.376,29.232l0.572,3.352h0.014l0.81-3.352h1.127l0.789,3.338h0.013l0.579-3.338h0.984l-1.007,5.041
				h-1.049l-0.881-3.688h-0.015l-0.887,3.688h-1.051l-0.977-5.041H280.376z"/>
			<path fill="#FFFFFF" d="M287.547,29.232l1.428,5.041h-0.99l-0.233-0.998h-1.458l-0.238,0.998h-0.992l1.442-5.041H287.547z
				 M287.553,32.451l-0.521-2.281h-0.015l-0.528,2.281H287.553z"/>
			<path fill="#FFFFFF" d="M291.982,29.232v0.797h-1.162v4.244h-0.95v-4.244h-1.162v-0.797H291.982z"/>
			<path fill="#FFFFFF" d="M294.419,30.832c-0.042-0.289-0.127-0.859-0.627-0.859c-0.703,0-0.703,0.957-0.703,1.738
				c0,0.959,0.056,1.219,0.177,1.465c0.098,0.205,0.31,0.359,0.533,0.359c0.543,0,0.641-0.635,0.691-1.062l0.936,0.303
				c-0.168,1.254-0.873,1.584-1.605,1.584c-1.541,0-1.717-1.562-1.717-2.584c0-0.991,0.07-2.627,1.703-2.627
				c1.239,0,1.465,0.908,1.577,1.466L294.419,30.832z"/>
			<path fill="#FFFFFF" d="M296.941,29.232v1.994h1.399v-1.994h0.95v5.041h-0.95v-2.23h-1.399v2.23h-0.951v-5.041H296.941z"/>
		</g>
	</g>
</g>
<path fill="#F8842E" d="M16.211,33.85V16.435h3.692V30.8h8.075v3.05H16.211z"/>
<path fill="#F8842E" d="M55.381,24.07h6.909v9.03c-1.12,0.365-2.174,0.621-3.163,0.769c-0.989,0.147-2,0.221-3.032,0.221
	c-2.628,0-4.635-0.772-6.021-2.315c-1.386-1.545-2.079-3.764-2.079-6.653c0-2.811,0.804-5.003,2.412-6.575
	c1.608-1.572,3.837-2.358,6.688-2.358c1.787,0,3.51,0.357,5.169,1.072l-1.227,2.954c-1.271-0.636-2.593-0.953-3.966-0.953
	c-1.596,0-2.875,0.536-3.835,1.608c-0.961,1.072-1.441,2.513-1.441,4.323c0,1.891,0.387,3.334,1.161,4.331s1.9,1.494,3.377,1.494
	c0.771,0,1.553-0.078,2.347-0.238v-3.633h-3.299V24.07z"/>
<path fill="#F8842E" d="M71.827,24.07h6.909v9.03c-1.12,0.365-2.174,0.621-3.163,0.769c-0.989,0.147-2,0.221-3.032,0.221
	c-2.628,0-4.635-0.772-6.021-2.315c-1.386-1.545-2.079-3.764-2.079-6.653c0-2.811,0.804-5.003,2.412-6.575
	c1.608-1.572,3.837-2.358,6.688-2.358c1.787,0,3.51,0.357,5.169,1.072l-1.227,2.954c-1.271-0.636-2.593-0.953-3.966-0.953
	c-1.596,0-2.875,0.536-3.835,1.608c-0.961,1.072-1.441,2.513-1.441,4.323c0,1.891,0.387,3.334,1.161,4.331s1.9,1.494,3.377,1.494
	c0.771,0,1.553-0.078,2.347-0.238v-3.633h-3.299V24.07z"/>
<path fill="#F8842E" d="M81.661,33.85V16.435h3.692V33.85H81.661z"/>
<path fill="#F8842E" d="M103.966,33.85h-4.693l-7.576-13.174H91.59c0.15,2.326,0.226,3.986,0.226,4.979v8.194h-3.299V16.435h4.657
	l7.564,13.043h0.083c-0.119-2.264-0.178-3.862-0.178-4.801v-8.243h3.323V33.85L103.966,33.85z"/>
<path fill="#F8842E" d="M113.741,24.07h6.908v9.03c-1.119,0.365-2.174,0.621-3.162,0.769c-0.988,0.147-1.999,0.221-3.031,0.221
	c-2.629,0-4.636-0.772-6.021-2.315c-1.386-1.545-2.079-3.764-2.079-6.653c0-2.811,0.805-5.003,2.412-6.575
	c1.608-1.572,3.838-2.358,6.688-2.358c1.787,0,3.51,0.357,5.17,1.072l-1.227,2.954c-1.271-0.636-2.593-0.953-3.967-0.953
	c-1.597,0-2.875,0.536-3.836,1.608c-0.961,1.072-1.441,2.513-1.441,4.323c0,1.891,0.388,3.334,1.162,4.331s1.899,1.494,3.377,1.494
	c0.77,0,1.552-0.078,2.347-0.238v-3.633h-3.3V24.07z"/>
<path fill="#F8842E" d="M132.385,27.167v6.683h-3.693V16.435h5.074c2.367,0,4.118,0.432,5.253,1.293
	c1.136,0.861,1.704,2.17,1.704,3.925c0,1.024-0.282,1.936-0.846,2.733c-0.564,0.798-1.362,1.425-2.395,1.876
	c2.62,3.915,4.328,6.444,5.122,7.588h-4.098l-4.157-6.683H132.385z M132.385,24.166h1.19c1.168,0,2.029-0.195,2.585-0.584
	c0.556-0.389,0.834-1.001,0.834-1.835c0-0.825-0.284-1.413-0.852-1.763s-1.447-0.523-2.639-0.523h-1.119L132.385,24.166
	L132.385,24.166z"/>
<path fill="#F8842E" d="M159.383,25.118c0,2.883-0.715,5.099-2.144,6.646c-1.43,1.549-3.479,2.323-6.146,2.323
	s-4.717-0.774-6.146-2.323c-1.43-1.548-2.145-3.771-2.145-6.67c0-2.899,0.717-5.112,2.15-6.641c1.433-1.529,3.488-2.293,6.164-2.293
	c2.677,0,4.724,0.771,6.141,2.311C158.675,20.013,159.383,22.229,159.383,25.118z M146.674,25.118c0,1.946,0.369,3.411,1.107,4.396
	c0.738,0.985,1.842,1.479,3.312,1.479c2.946,0,4.419-1.958,4.419-5.873c0-3.923-1.465-5.884-4.396-5.884
	c-1.469,0-2.577,0.494-3.323,1.482C147.047,21.706,146.674,23.173,146.674,25.118z"/>
<path fill="#F8842E" d="M172.434,33.85l-1.263-4.146h-6.349l-1.264,4.146h-3.979l6.146-17.485h4.515l6.17,17.485H172.434z
	 M170.289,26.607c-1.167-3.756-1.824-5.88-1.971-6.374c-0.147-0.492-0.252-0.881-0.315-1.167c-0.263,1.017-1.013,3.53-2.252,7.541
	H170.289z"/>
<path fill="#F8842E" d="M191.833,24.976c0,2.867-0.815,5.062-2.448,6.586c-1.632,1.525-3.988,2.287-7.068,2.287h-4.933V16.435h5.468
	c2.844,0,5.051,0.751,6.623,2.252S191.833,22.283,191.833,24.976z M187.997,25.071c0-3.74-1.651-5.61-4.955-5.61h-1.965V30.8h1.584
	C186.219,30.8,187.997,28.891,187.997,25.071z"/>
<path fill="#F8842E" d="M204.502,29.014c0,1.572-0.566,2.812-1.697,3.717c-1.132,0.904-2.705,1.357-4.724,1.357
	c-1.858,0-3.502-0.35-4.931-1.048v-3.431c1.175,0.522,2.168,0.894,2.982,1.106c0.812,0.216,1.559,0.321,2.233,0.321
	c0.81,0,1.432-0.154,1.864-0.464c0.432-0.31,0.648-0.771,0.648-1.382c0-0.342-0.096-0.646-0.286-0.911
	c-0.19-0.267-0.471-0.522-0.84-0.77s-1.122-0.639-2.257-1.18c-1.064-0.5-1.862-0.98-2.395-1.44
	c-0.533-0.461-0.957-0.997-1.274-1.608c-0.318-0.611-0.478-1.326-0.478-2.145c0-1.54,0.522-2.751,1.566-3.633
	c1.044-0.881,2.486-1.322,4.33-1.322c0.904,0,1.77,0.107,2.591,0.322c0.821,0.214,1.681,0.516,2.578,0.905l-1.19,2.87
	c-0.93-0.381-1.697-0.647-2.306-0.798s-1.205-0.227-1.792-0.227c-0.699,0-1.234,0.163-1.607,0.488
	c-0.373,0.326-0.561,0.751-0.561,1.274c0,0.326,0.075,0.61,0.227,0.853c0.15,0.242,0.392,0.476,0.721,0.702
	c0.33,0.227,1.109,0.634,2.341,1.221c1.628,0.778,2.744,1.559,3.349,2.341C204.199,26.916,204.502,27.878,204.502,29.014z"/>
<path fill="#F8842E" d="M36.943,19.189c1.59,0,3.086,0.62,4.211,1.746c1.125,1.125,1.745,2.622,1.745,4.214
	c0,3.287-2.674,5.96-5.959,5.96c-3.286,0-5.96-2.676-5.961-5.959c0.001-3.287,2.674-5.961,5.959-5.96L36.943,19.189 M36.943,16.189
	c-0.001,0-0.002,0-0.003,0c0,0-0.002,0-0.003,0c-4.949,0-8.958,4.011-8.959,8.959c0.001,4.947,4.013,8.959,8.96,8.961
	c4.948-0.002,8.96-4.015,8.96-8.961C45.9,20.201,41.889,16.189,36.943,16.189L36.943,16.189z"/>
<circle fill="#F8842E" cx="36.938" cy="25.149" r="2.597"/>
<line fill="none" stroke="#202020" stroke-miterlimit="10" x1="222.249" y1="6.682" x2="222.249" y2="43.604"/>
</svg>
